PathFileType	4	(X/Y/Z)	Patient4_TMGait_0pt7_01_right_44.trc.trc
DataRate	CameraRate	NumFrames	NumMarkers	Units	OrigDataRate	OrigDataStartFrame	OrigNumFrames
85.889570552147	85.889570552147	5	33	mm	85.889570552147	89	       141
Frame#	Time	Sacral			L.Shoulder			Chest			R.Shoulder			Neck			R.ASIS			L.ASIS			R.Thigh.Superior			R.Thigh.Lateral			R.Thigh.Inferior			R.Patella			L.Thigh.Superior			L.Thigh.Lateral			L.Thigh.Inferior			L.Patella			L.Shank.Superior			L.Shank.Lateral			L.Shank.Inferior			R.Shank.Superior			R.Shank.Lateral			R.Shank.Inferior			R.Heel			R.Midfoot.Superior			R.Midfoot.Lateral			R.Toe			L.Heel			L.Midfoot.Lateral			L.Midfoot.Superior			L.Toe			L.Elbow			L.Wrist			R.Elbow			R.Wrist			
		X1	Y1	Z1	X2	Y2	Z2	X3	Y3	Z3	X4	Y4	Z4	X5	Y5	Z5	X6	Y6	Z6	X7	Y7	Z7	X8	Y8	Z8	X9	Y9	Z9	X10	Y10	Z10	X11	Y11	Z11	X12	Y12	Z12	X13	Y13	Z13	X14	Y14	Z14	X15	Y15	Z15	X16	Y16	Z16	X17	Y17	Z17	X18	Y18	Z18	X19	Y19	Z19	X20	Y20	Z20	X21	Y21	Z21	X22	Y22	Z22	X23	Y23	Z23	X24	Y24	Z24	X25	Y25	Z25	X26	Y26	Z26	X27	Y27	Z27	X28	Y28	Z28	X29	Y29	Z29	X30	Y30	Z30	X31	Y31	Z31	X32	Y32	Z32	X33	Y33	Z33	

89	51.454571428571	857.010012634322	1009.570177319774	448.155307787492	1038.166011210473	1409.655161841263	231.644413566299	1149.418378112086	1351.109275231305	392.787653112098	1080.212415278463	1448.771594747662	561.392191135592	1052.731068806339	1486.520016975070	378.051995392220	1076.108338875733	936.800537585493	569.870384808052	1072.310079796091	954.542289937320	296.123056325889	1119.300822498477	733.978216694180	552.175585913976	1036.697061731911	621.999632589905	610.354612188192	1126.234405434205	564.705859095139	544.860895238400	1113.015356638290	451.736665155849	562.543746409884	1133.941520330969	761.080989981596	313.469278527265	1054.558523619167	638.869062842658	257.238624802700	1153.154188561848	571.106005867165	312.309204287215	1161.522919803071	502.299767267898	318.900735931463	1140.836819357474	428.140747129256	312.437263645629	1058.549183873847	304.424550700424	271.474702475175	1131.950977448784	200.319855060139	335.193094204233	1027.135282530676	391.144831529080	553.793456319406	894.233040888895	365.925204726333	593.108115044106	874.932387843145	261.321267877065	537.873705603034	671.743616692498	217.745089822089	474.977541598889	829.592412220166	154.618874281555	548.029433722855	715.832088201111	164.357436034747	562.197589445277	879.913406682162	43.943589359981	592.730432274200	1023.274076775323	38.475118658160	387.749236521852	1095.086178791519	34.782289788395	304.196288835744	1176.476315708774	100.299262945914	326.891510192563	1305.405998011932	52.280604718240	299.377228403487	954.163752215937	1059.105152556640	149.051010412818	970.666243928458	799.259285276471	161.457778874137	1147.381139425208	1117.488997142947	696.299944315312	1366.534302777297	1085.052971263993	573.395786742864	
90	51.466214285714	856.143140434415	1011.004935774843	446.386928301098	1039.957240742486	1410.287581337961	229.790228868189	1149.629323981826	1352.135469615123	392.173441368474	1079.001842196228	1450.452273443595	559.890389087148	1053.136466738582	1487.684592048184	376.060679012877	1074.902337027167	938.209901419610	569.020857037767	1072.121101559968	956.084076038127	295.263386921443	1123.641597611258	738.572421571415	552.696605529150	1044.269864808089	624.896901144050	611.334314805276	1136.255162487834	569.660791552791	546.726028320064	1125.451613952797	455.697937000302	564.845380661759	1130.854274552549	760.273827244060	312.052032226028	1049.988596409318	639.361844293278	256.464711557246	1147.295369868748	570.307028562202	312.028290845916	1154.509811480151	501.648016738895	318.599451008458	1133.647888766681	427.865713500521	312.033407184400	1050.864309871108	304.443695967563	271.172781112404	1123.851387708769	200.157845367874	335.053477558320	1038.829241987971	394.976133595979	555.152233366202	904.665359785578	372.261936920355	592.228508091284	884.454666176291	267.814367034158	537.220803091487	681.944236913909	228.671668605291	470.652959199203	836.749945330059	161.558980468048	546.984000015006	722.813805127048	174.287995766299	559.032113327389	883.451487541768	48.241962642482	593.561129178693	1014.938423118835	38.416283214265	387.709792252451	1086.731348059726	34.678164938755	304.154284374292	1168.124583186226	100.221122735002	326.843057252944	1297.084729246338	52.225993395319	299.327900203516	964.206015692400	1058.058175468510	145.411501845326	987.971699022751	798.687853291584	157.407978681647	1134.285736073523	1117.604127160228	697.668274681080	1353.385015021441	1070.188564356177	578.932472648759	
91	51.477857142857	855.232661935123	1012.296323426325	444.742612417082	1041.655013484127	1410.988441523067	228.245774274491	1149.780172712163	1353.020584549024	391.753575471129	1077.808555098971	1451.808233810028	558.695957359940	1053.533831776543	1488.738100254540	374.475159309373	1073.706459439879	939.471924923448	568.043275933752	1071.709059701502	957.407340879223	294.303732158667	1127.666893872802	743.267971930471	553.017395755023	1051.676588069830	628.094553462388	612.328161743800	1145.798458781011	574.998143944609	548.322568066470	1137.619297897674	460.180859462851	566.872802434413	1127.634993386323	759.573174318602	311.145912504608	1045.620324319456	639.890434142641	255.708538222298	1141.486957762967	569.557478923532	311.940250971296	1147.550049477790	501.009194922876	318.441377982855	1126.553401614019	427.597629528706	311.738487538215	1043.347357738453	304.464120476900	270.870015732244	1115.841456303285	199.991150245105	334.990994729968	1050.569419120921	399.065860693141	556.504573959500	915.519067626830	378.128792339639	591.880913521167	894.702791627424	273.808555173589	536.999721124400	692.897753947025	237.878623508289	467.714601515210	845.243935842233	167.726977067980	546.199793560768	731.324282452701	182.633134656103	556.798423694455	889.272463536290	52.602027642857	593.997165416931	1006.619078331483	38.372565055840	387.677149400456	1078.397753964644	34.592693521847	304.128047146324	1159.824217305795	100.104454071610	326.848818279266	1288.800280406517	52.085011467912	299.311957460679	974.218504309484	1057.405135112598	141.934774424911	1005.687879919763	798.735307556025	153.434066723244	1120.964109098315	1117.687732390066	699.014018766771	1339.345404415763	1054.747197156062	585.583891147075	
92	51.489500000000	854.301472453050	1013.439304200476	443.207518834444	1043.242028471692	1411.761278946902	227.007728757321	1149.869876135947	1353.767579111992	391.513779164289	1076.637496675442	1452.842228944758	557.798462171345	1053.935884119681	1489.675976935673	373.280622029286	1072.532376396020	940.597784186124	566.953735106020	1071.110475512826	958.513239147618	293.270023492191	1131.385773688512	748.017808367331	553.044923096823	1058.951829787195	631.543032845201	613.267055794311	1154.864562453000	580.641152891495	549.544280851578	1149.496615689027	465.107996662047	568.551101319726	1124.407560187515	758.980501524406	310.668348996663	1041.459413496034	640.421756922470	254.979657580114	1135.796350132079	568.843605177681	311.976429676603	1140.739122147279	500.387476024404	318.413666692291	1119.637458903490	427.330146926394	311.553853081735	1036.063977904651	304.491290664647	270.566667072946	1107.960948153845	199.816705806742	335.011229328579	1062.326425913316	403.342587540713	557.797089507785	926.763167784942	383.401187786483	592.106707745679	905.629843791057	279.177038143125	537.260010856527	704.451127282584	245.284880143028	466.348230116158	855.053889354543	172.911049171392	545.778576660264	741.280389909061	189.213183644489	555.647704619663	897.366276391902	56.669425910396	594.040598903880	998.324476694454	38.341705116308	387.651009823671	1070.092602038430	34.531503704001	304.116678445503	1151.574568430126	99.959225325563	326.906580052350	1280.552095944425	51.889269787161	299.317831257765	984.125085037357	1057.146730315917	138.644405769402	1023.710220264051	799.448580221090	149.553518530534	1107.514058424170	1117.754660477679	700.301646402965	1324.377092027821	1038.768630901654	593.350299281647	
93	51.501142857143	853.360931394189	1014.431351953108	441.764255636398	1044.708369531571	1412.602176206317	226.065393129235	1149.898830509413	1354.382986504023	391.440121574325	1075.486852947779	1453.565545339969	557.181645542279	1054.353151902176	1490.496012230109	372.450390728131	1071.385071389622	941.603873165449	565.787103983932	1070.371461342242	959.415462371163	292.197655865839	1134.815095930758	752.779626506902	552.716313022854	1066.121543119856	635.194386790898	614.092635563854	1163.460053987521	586.510027832716	550.315014885610	1161.063174554553	470.403857009578	569.821598343735	1121.276603516086	758.473859345374	310.520139296901	1037.498566122820	640.921324914189	254.288541681437	1130.268762259301	568.144854078227	312.085768652177	1134.142947528451	499.778653721194	318.511694435822	1112.957667358951	427.052776608470	311.486744180941	1029.062546730275	304.522709478361	270.262345332604	1100.235636223473	199.628747405258	335.122090857978	1074.070420789502	407.738426706518	558.981167418713	938.357928562974	387.990229735927	592.905536682819	917.182833232954	283.825831080917	538.020489944480	716.490261581643	250.855810259724	466.620766617693	866.134333425690	176.977316203574	545.819288131411	752.580110842768	193.941688227897	555.661113725859	907.659379797923	60.147165220654	593.777650643813	990.057783490884	38.320264385834	387.632914588045	1061.818015228262	34.495856688057	304.120396354532	1143.370946145205	99.791839861094	327.013534106683	1272.336027421078	51.663978867813	299.334104575245	993.839313613976	1057.268024944013	135.557549277348	1041.930976593156	800.860498196529	145.787285782505	1094.046582744401	1117.822442595069	701.495501971608	1308.433434302496	1022.346913106326	602.179778944417	
